<svg xmlns="http://www.w3.org/2000/svg" viewBox="0 0 64 64"><defs><style>.cls-1{fill:#fff;}.cls-2,.cls-3,.cls-4{fill:none;stroke:#000;}.cls-2{stroke-miterlimit:10;}.cls-3,.cls-4{stroke-linecap:square;stroke-linejoin:round;}.cls-4{stroke-width:2px;}</style></defs><g id="Lager_2" data-name="Lager 2"><rect class="cls-1" x="5.5" y="5.5" width="53" height="53"/></g><g id="Lager_1" data-name="Lager 1"><polyline class="cls-2" points="59 46.73 59 59 46.73 59"/><polyline class="cls-2" points="5 17.27 5 5 17.27 5"/><polyline class="cls-2" points="46.73 5 59 5 59 17.27"/><polyline class="cls-3" points="17.27 59 5 59 5 46.73"/><polyline class="cls-4" points="51.5 51.5 51.5 12.5 31.99 32 32.01 32 12.5 12.5 12.5 51.5"/><polyline class="cls-4" points="21.44 50.5 21.44 41.7 21.44 41.52 21.44 34.5 32.11 34.5"/><line class="cls-4" x1="29.98" y1="41.7" x2="21.44" y2="41.7"/><line class="cls-4" x1="37.44" y1="34.5" x2="37.44" y2="50.5"/><line class="cls-4" x1="30.33" y1="34.5" x2="44.56" y2="34.5"/></g></svg>