<svg id="Lager_1" data-name="Lager 1" xmlns="http://www.w3.org/2000/svg" viewBox="0 0 64 64"><defs><style>.cls-1{fill:#f9ff86;}.cls-1,.cls-2,.cls-3{stroke:#000;stroke-miterlimit:10;}.cls-2{fill:none;}.cls-3{fill:#fdffd7;}.cls-4{fill:#e50500;}</style></defs><circle class="cls-1" cx="32" cy="32" r="31.5"/><line class="cls-2" x1="11.33" y1="12.25" x2="20.67" y2="9.75"/><line class="cls-2" x1="52.67" y1="12.25" x2="43.33" y2="9.75"/><path class="cls-3" d="M56,25c2.32,16.28-10.39,30-24,30S5.68,41.28,8,25a47.82,47.82,0,0,0,23.5,6.5A47.8,47.8,0,0,0,56,25Z"/><path class="cls-4" d="M19,14a3,3,0,0,0-3,3,3,3,0,0,0-6,0c0,4.5,6,9,6,9s6-4.5,6-9A3,3,0,0,0,19,14Z"/><path class="cls-4" d="M51,14a3,3,0,0,0-3,3,3,3,0,0,0-6,0c0,4.5,6,9,6,9s6-4.5,6-9A3,3,0,0,0,51,14Z"/></svg>